<?xml version="1.0" encoding="iso-8859-1"?>
<!-- Generator: Adobe Illustrator 19.0.0, SVG Export Plug-In . SVG Version: 6.00 Build 0)  -->
<svg version="1.1" id="Capa_1" xmlns="http://www.w3.org/2000/svg" xmlns:xlink="http://www.w3.org/1999/xlink" x="0px" y="0px"
	 viewBox="0 0 512 512" style="enable-background:new 0 0 512 512;" xml:space="preserve">
<g>
	<g>
		<path d="M384,170.23V63.563c0-12.8-8.533-21.333-21.333-21.333H251.733C241.067,8.097,204.8-6.837,170.667,3.83
			c-17.067,6.4-32,19.2-38.4,38.4H21.333C8.533,42.23,0,50.763,0,63.563V490.23c0,12.8,8.533,21.333,21.333,21.333h341.333
			c12.8,0,21.333-8.533,21.333-21.333v-21.333H42.667v-384h42.667v42.667c0,12.8,8.533,21.333,21.333,21.333h170.667
			c12.8,0,21.333-8.533,21.333-21.333V84.897h42.667v85.333H384z M256,106.23H128V84.897h21.333c12.8,0,21.333-8.533,21.333-21.333
			S179.2,42.23,192,42.23s21.333,8.533,21.333,21.333s8.533,21.333,21.333,21.333H256V106.23z"/>
	</g>
</g>
<g>
	<g>
		<circle cx="106.667" cy="212.897" r="21.333"/>
	</g>
</g>
<g>
	<g>
		<circle cx="106.667" cy="298.23" r="21.333"/>
	</g>
</g>
<g>
	<g>
		<circle cx="106.667" cy="383.563" r="21.333"/>
	</g>
</g>
<g>
	<g>
		<rect x="170.667" y="191.563" width="106.667" height="42.667"/>
	</g>
</g>
<g>
	<g>
		<rect x="170.667" y="276.897" width="64" height="42.667"/>
	</g>
</g>
<g>
	<g>
		<rect x="170.667" y="362.23" width="85.333" height="42.667"/>
	</g>
</g>
<g>
	<g>
		<path d="M384,191.563c-70.4,0-128,57.6-128,128s57.6,128,128,128s128-57.6,128-128S454.4,191.563,384,191.563z M384,404.897
			c-46.933,0-85.333-38.4-85.333-85.333s38.4-85.333,85.333-85.333s85.333,38.4,85.333,85.333S430.933,404.897,384,404.897z"/>
	</g>
</g>
<g>
	<g>
		<path d="M411.733,261.963l-32,32l-29.867-14.933l-19.2,38.4l42.667,21.333c8.533,4.267,17.067,2.133,25.6-4.267L441.6,291.83
			L411.733,261.963z"/>
	</g>
</g>
<g>
</g>
<g>
</g>
<g>
</g>
<g>
</g>
<g>
</g>
<g>
</g>
<g>
</g>
<g>
</g>
<g>
</g>
<g>
</g>
<g>
</g>
<g>
</g>
<g>
</g>
<g>
</g>
<g>
</g>
</svg>
